<svg xmlns="http://www.w3.org/2000/svg" viewBox="0 0 209.07 33.75"><g id="Layer_2" data-name="Layer 2"><g id="Layer_1-2" data-name="Layer 1"><path d="M0,33.75V32.23c4,0,4.16-4,4.16-9.51V18.64c0-5.6-.52-9.8-4.08-9.8V7.28H11.24l.4,1.4A9.05,9.05,0,0,1,17.28,7c5.48,0,9.12,4.48,9.12,11.32,0,6.56-4.24,10.88-10.6,10.88a6.35,6.35,0,0,1-4.64-1.92c.44,3.6,1.16,4.91,4.24,4.91v1.52ZM18.36,17.6c0-4.64-1-8.52-3.64-8.52-3.4,0-3.84,3.88-3.84,8.52,0,5.12.12,9.4,3.88,9.4C17.68,27,18.36,22.6,18.36,17.6Z"/><path d="M52,21.68c-1.4,5-4.88,7.56-10.6,7.56-7.48,0-11.08-5.44-11.08-10.88C30.32,12.72,34,7,41.16,7c10.32,0,11.16,7.64,11.16,11.32H38.92v.2c0,4.28.16,9.15,4.12,9.15,4.12,0,6.6-2.39,7.68-6.39Zm-7.52-4.56c0-5.6-.84-8.36-2.56-8.36-2.44,0-2.92,4.24-3,8.36Z"/><path d="M77.92,21.68c-1.4,5-4.88,7.56-10.6,7.56-7.48,0-11.08-5.44-11.08-10.88C56.24,12.72,59.92,7,67.08,7,77.4,7,78.23,14.68,78.23,18.36H64.84v.2c0,4.28.16,9.15,4.12,9.15,4.12,0,6.6-2.39,7.68-6.39ZM70.4,17.12c0-5.6-.84-8.36-2.56-8.36-2.44,0-2.92,4.24-3,8.36Z"/><path d="M79,33.75V32.23c4,0,4.16-4,4.16-9.51V18.64c0-5.6-.52-9.8-4.08-9.8V7.28H90.2l.4,1.4A9.05,9.05,0,0,1,96.24,7c5.48,0,9.11,4.48,9.11,11.32,0,6.56-4.23,10.88-10.59,10.88a6.35,6.35,0,0,1-4.64-1.92c.44,3.6,1.16,4.91,4.24,4.91v1.52ZM97.32,17.6c0-4.64-1-8.52-3.64-8.52-3.4,0-3.84,3.88-3.84,8.52,0,5.12.12,9.4,3.88,9.4C96.64,27,97.32,22.6,97.32,17.6Z"/><path d="M143.63,21.68c-1.4,5-4.87,7.56-10.59,7.56-7.48,0-11.08-5.44-11.08-10.88C122,12.72,125.64,7,132.8,7,143.11,7,144,14.68,144,18.36H130.56v.2c0,4.28.16,9.15,4.12,9.15,4.12,0,6.59-2.39,7.67-6.39Zm-7.51-4.56c0-5.6-.84-8.36-2.56-8.36-2.44,0-2.92,4.24-3,8.36Z"/><path d="M165,29a6.62,6.62,0,0,1-5.2-2,13.26,13.26,0,0,1-7.2,2.28c-3.48,0-6.32-1.76-6.32-5.44,0-5.36,7.32-6.84,12.92-10.4v-.76c0-3-2.24-3.92-4.28-3.92-1.76,0-3.36.6-3.36,1.12a3.26,3.26,0,0,1,2.36,3,3.1,3.1,0,0,1-3.2,3,3,3,0,0,1-3.12-3.24c0-2.84,3.44-5.56,9-5.56C164.48,7,167,9.44,167,13.28c0,2.76-.23,5.56-.23,10,0,3.2,1.76,4.2,3.87,4.2V29Zm-5.8-13.76c-3.6,2.08-5.44,4.32-5.44,8.48a2.84,2.84,0,0,0,2.88,3,4.06,4.06,0,0,0,2.56-1.36Z"/><path d="M186.4,24.56c-1.12,2.76-2.76,4.68-6.48,4.68-4.52,0-6.24-1.41-6.24-6.08s.16-7,.16-10.48c0-3.24-2.08-3.84-4.84-3.84V7.28c4.88,0,8.36-1.52,8.36-7l.32-.28,2.76,1,.12,6.28h4.92V8.84h-2c-2,0-2.84.72-2.8,3.44.2,12,0,14.24,2.16,14.24,1.24,0,1.72-1.12,2.4-2.6Z"/><path d="M206.79,15.44c-3.72-5.16-7.51-6.88-10.23-6.88-2,0-3.32,1.12-3.32,2.36,0,4.28,15.83,1.92,15.83,12,0,4.28-2.4,6.36-8,6.36-3.76,0-5.4-1.64-7.2-1.64a4.69,4.69,0,0,0-3.2,1.64l-1.12-.2V20.68l1.12-.16c2.2,4.6,7,7.19,10.24,7.19,1.76,0,3-.75,3-2.47,0-4.68-14.27-2.76-14.27-11.2,0-4.72,3.24-7,7.08-7,4,0,5.51,2.24,7.12,2.24.8,0,1.64-.56,2.87-2.24l1.2.2v8.12Z"/></g></g></svg>